<?xml version="1.0"?><svg width="640" height="480" xmlns="http://www.w3.org/2000/svg">
 <title>black Star Glasses</title>

 <metadata id="metadata7">image/svg+xml</metadata>
 <g>
  <title>Layer 1</title>
  <path d="m445.72406,86.045715c-37.811279,0.253937 -74.24823,12.123665 -111.362091,16.8703c-15.489655,1.981148 -31.454407,2.466522 -46.970093,0.624634c-20.629822,
    -2.449356 -40.603043,-8.955338 -61.219223,-11.871849c-18.424255,-2.604774 -37.078735,-5.326279 -55.618668,-5.434509c-32.400101,-0.192863 -63.735413,
    9.994659 -95.497093,15.495583c0,9.330353 -1.888023,21.307236 2.860909,27.865662c4.898636,6.764206 13.161667,12.950882 15.304817,22.117264c5.082314,
    21.740097 12.298714,43.050537 21.525597,63.48024c4.483597,9.928223 12.946198,16.849899 22.396454,21.61795c22.757065,11.481857 49.691574,13.170486 74.656403,
    9.559631c35.552444,-5.141983 54.840805,-31.9319 69.555923,-62.542679c5.507599,-12.442932 6.122192,-26.803879 13.376007,-38.176422c4.307831,
    -6.753479 14.312561,-3.910828 21.462097,-3.935516c7.150635,-0.024628 13.211548,11.919037 15.429535,19.869354c7.853668,28.134583 20.947266,57.984634 46.971222,
    72.725891c38.861298,22.014374 100.085052,17.896744 125.299316,-21.805481c9.867584,-15.538422 12.592499,-34.3909 17.543243,-51.982269c3.013977,
    -10.710403 5.707092,-23.47908 16.425049,-29.366791c4.32489,-2.376541 1.289368,-11.857956 1.927734,-17.369583c0.696289,-6.004509 2.03772,-11.316864 -6.470276,
    -12.495476c-14.838745,-2.058281 -29.232941,-8.315689 -44.4198,-10.433968c-14.391998,-2.007927 -28.492554,-4.909439 -43.177063,-4.811966zm-249.973877,
    9.996819c10.733856,-0.06752 21.421265,0.7211 31.8535,2.936897c62.158127,13.203697 63.414536,38.923218 37.826004,92.096985c-20.850906,43.326981 -64.043854,
    54.183075 -107.566757,43.797348c-20.063965,-4.78627 -33.782387,-18.85141 -40.252647,-38.112137c-6.829735,-20.328979 -11.994827,-41.926544 -10.825729,
    -63.293793c1.567093,-28.610336 33.790306,-32.631584 56.863731,-35.238449c10.587601,-1.195755 21.36911,-2.118286 32.101898,-2.186852zm226.954834,0c10.733887,
    0.068565 21.515411,0.991096 32.103027,2.186852c23.072235,2.606865 55.29776,6.628113 56.86261,35.238449c1.169067,21.367249 -3.996063,42.964813 -10.825714,
    63.293793c-6.470337,19.260727 -20.188721,33.325867 -40.251556,38.112137c-43.521759,10.385727 -86.715851,-0.470367 -107.567902,-43.797348c-25.588501,
    -53.173767 -24.330963,-78.893288 37.827148,-92.096985c10.432281,-2.215797 21.119659,-3.004417 31.852386,
    -2.936897z" stroke-width="5" stroke="#D3CED4" fill="#D3CED4" id="path2830"/>
 </g>
</svg>
