<?xml version="1.0" ?>
<!DOCTYPE svg PUBLIC '-//W3C//DTD SVG 1.1//EN' 'http://www.w3.org/Graphics/SVG/1.1/DTD/svg11.dtd'>
<svg enable-background="new 0 0 512 512" height="512px" id="Layer_1" version="1.1" viewBox="0 0 512 512" width="512px" xml:space="preserve" xmlns="http://www.w3.org/2000/svg" xmlns:xlink="http://www.w3.org/1999/xlink">
    <g><path
        d="M160,368h240c7.344,0,13.742-5,15.523-12.125l48-192c1.194-4.781,0.116-9.844-2.914-13.719   C457.578,146.266,452.93,144,448,144H112c-0.078,0-0.156,0-0.234,0L95.273,91.234C93.188,84.547,87,80,80,80H32   c-8.836,0-16,7.156-16,16s7.164,16,16,16h36.234l70.922,226.938c-28.266,7.656-43.164,30.345-43.164,53.063   c0,24.672,17.367,49.516,50.586,54.859C152.859,466.047,170.703,480,192,480c20.875,0,38.453-13.391,45.063-32h69.875   c6.609,18.609,24.188,32,45.063,32s38.453-13.391,45.063-32H416c8.836,0,16-7.156,16-16s-7.164-16-16-16h-18.938   c-6.609-18.609-24.188-32-45.063-32s-38.453,13.391-45.063,32h-69.875c-6.609-18.609-24.188-32-45.063-32   c-20.266,0-37.508,12.594-44.547,30.344c-13.273-3.641-19.461-12.969-19.461-22.344C127.992,380.047,137.883,368,160,368z M208,336   h-36.234l-10-32H208V336z M208,272h-56.234l-10-32H208V272z M352,176h75.508l-8.164,32.672C418.227,208.438,417.188,208,416,208   h-64V176z M352,240h59.508l-8,32H352V240z M352,304h43.508l-8,32H352V304z M240,176h80v32h-80V176z M240,240h80v32h-80V240z    M240,304h80v32h-80V304z M131.766,208l-10-32H208v32H131.766z M352,414.406c9.703,0,17.602,7.875,17.602,17.594   s-7.897,17.594-17.602,17.594s-17.602-7.875-17.602-17.594S342.297,414.406,352,414.406z M192,414.406   c9.703,0,17.602,7.875,17.602,17.594s-7.898,17.594-17.602,17.594s-17.602-7.875-17.602-17.594S182.297,414.406,192,414.406z    M328.609,64l94.426,15.625c3.049,0.505,5.73,2.3,7.358,4.927c1.629,2.627,2.044,5.828,1.14,8.783L420.922,128h-69.188L328.609,64z    M140.797,128l-12.273-37.516c-0.875-2.688-0.641-5.609,0.664-8.125s3.57-4.422,6.289-5.266L277.203,32.5   c5.305-1.672,11.016,0.953,13.148,6.047L327.851,128H140.797z"
        fill="#9A0000"/></g>
</svg>
